<svg xmlns="http://www.w3.org/2000/svg" xmlns:xlink="http://www.w3.org/1999/xlink" width="1080" zoomAndPan="magnify" viewBox="0 0 810 809.999993" height="1080" preserveAspectRatio="xMidYMid meet" version="1.0"><defs><clipPath id="a0cd626e00"><path d="M 458 275 L 809.84375 275 L 809.84375 372.808594 L 458 372.808594 Z M 458 275 " clip-rule="nonzero"/></clipPath><clipPath id="7e28b661a0"><path d="M 321.03125 391 L 801 391 L 801 638.117188 L 321.03125 638.117188 Z M 321.03125 391 " clip-rule="nonzero"/></clipPath><clipPath id="2cef574313"><path d="M 474.660156 467.792969 L 493.757812 467.792969 L 493.757812 486.890625 L 474.660156 486.890625 Z M 474.660156 467.792969 " clip-rule="nonzero"/></clipPath><clipPath id="f843f80846"><path d="M 484.207031 467.792969 C 478.933594 467.792969 474.660156 472.070312 474.660156 477.34375 C 474.660156 482.617188 478.933594 486.890625 484.207031 486.890625 C 489.480469 486.890625 493.757812 482.617188 493.757812 477.34375 C 493.757812 472.070312 489.480469 467.792969 484.207031 467.792969 Z M 484.207031 467.792969 " clip-rule="nonzero"/></clipPath></defs><path fill="#560216" d="M 166.246094 515.324219 C 161.066406 517.023438 155.632812 517.867188 150.066406 517.5 C 145.699219 517.210938 141.488281 516.171875 137.542969 514.375 C 129.738281 510.816406 123.824219 504.710938 119.546875 497.644531 C 118.039062 497.027344 116.566406 496.425781 115.132812 495.832031 C 119.480469 508.179688 127.511719 520.148438 140.152344 525.917969 C 144.390625 527.851562 148.917969 528.960938 153.617188 529.269531 C 164.214844 529.972656 174.371094 526.597656 183.335938 521.230469 C 177.472656 519.253906 171.769531 517.273438 166.246094 515.324219 " fill-opacity="1" fill-rule="evenodd"/><path fill="#560216" d="M 497.945312 385.570312 C 549.308594 378.871094 562.949219 435.863281 551.300781 479.839844 C 587.378906 454.28125 646.636719 414.957031 707.007812 399.359375 C 708.042969 388.703125 710.222656 371.050781 716.320312 354.445312 C 725.164062 330.382812 743.816406 312.058594 770.140625 329.410156 C 744.074219 317.140625 730.027344 332.261719 721.371094 357.628906 C 715.714844 374.191406 713.683594 391.558594 714.375 402.402344 C 643.960938 431.636719 574.863281 474.65625 524.609375 521.785156 C 551.148438 460.878906 553.140625 399.683594 497.945312 385.570312 " fill-opacity="1" fill-rule="evenodd"/><path fill="#560216" d="M 497.945312 385.570312 C 549.308594 378.871094 562.949219 435.863281 551.300781 479.839844 C 591.273438 451.5 642.421875 415.679688 714.375 402.402344 C 636.011719 432.628906 578.546875 471.191406 524.609375 521.785156 C 551.148438 460.878906 553.140625 399.683594 497.945312 385.570312 " fill-opacity="1" fill-rule="evenodd"/><path fill="#560216" d="M 426.542969 357.511719 C 343.726562 422.289062 321.707031 413.597656 219.851562 397.203125 L 102.242188 375.441406 L 221.550781 387.765625 C 319.121094 402.460938 338.539062 411.679688 426.542969 357.511719 " fill-opacity="1" fill-rule="evenodd"/><path fill="#560216" d="M 376.472656 360.101562 C 372.84375 367.921875 366.234375 373.523438 358.234375 378.488281 C 352.308594 382.164062 344.605469 385.167969 332.84375 386.433594 C 288.652344 391.183594 266.769531 379.269531 238.828125 375.957031 C 266.601562 373.628906 301.238281 385.808594 327.644531 380.910156 C 333.273438 379.871094 337.976562 378.371094 341.269531 376.328125 C 348.367188 371.921875 354.234375 366.949219 357.457031 360.011719 L 357.746094 359.371094 C 356.644531 359.171875 355.472656 358.976562 354.242188 358.777344 C 320.082031 353.253906 293.855469 352.578125 275.574219 356.164062 C 294.316406 350.945312 322.25 350.585938 359.332031 355.75 C 360.003906 354.125 360.53125 352.664062 360.914062 351.339844 C 357.886719 349.554688 352.5625 348.550781 344.507812 347.5625 C 310.484375 343.386719 284.507812 343.71875 266.5625 347.984375 C 286.773438 341.480469 318.269531 340.402344 361.054688 345.65625 L 361.527344 345.714844 C 360.648438 340.757812 354.488281 339.363281 341.0625 338.296875 C 305.816406 335.511719 279.085938 336.964844 260.824219 342.089844 C 281.304688 334.585938 313.683594 332.136719 358.003906 335.644531 C 382.609375 337.589844 385.554688 340.535156 376.472656 360.101562 " fill-opacity="1" fill-rule="evenodd"/><path fill="#560216" d="M 738.921875 294.308594 C 661.726562 276.9375 526.136719 279.257812 458.25 290.960938 L 459.046875 280.332031 C 526.742188 271.164062 661.949219 273.96875 738.921875 294.308594 " fill-opacity="1" fill-rule="evenodd"/><path fill="#560216" d="M 472.207031 288.816406 C 467.226562 289.171875 463.226562 290.601562 458.25 290.957031 C 424.257812 250.894531 452.507812 200.707031 525.097656 197.515625 C 601.296875 194.167969 672.449219 242.324219 714.058594 287.363281 C 661.382812 246.667969 615.648438 205.292969 535.375 209.410156 C 479.515625 212.28125 437.976562 244.121094 472.207031 288.816406 " fill-opacity="1" fill-rule="evenodd"/><path fill="#560216" d="M 501.890625 391.988281 C 500.277344 391.910156 498.667969 391.984375 497.074219 392.140625 C 500.613281 392.347656 504.003906 393.234375 507.164062 394.800781 C 516.949219 399.644531 523.046875 410.152344 526.269531 421.140625 C 528.460938 428.597656 529.476562 436.648438 529.574219 444.777344 C 529.667969 452.96875 528.832031 461.257812 527.304688 469.25 C 525.402344 479.164062 522.277344 489.226562 518.050781 498.722656 C 513.792969 508.28125 508.363281 517.273438 501.863281 525.042969 C 496.96875 530.890625 491.082031 536.367188 484.621094 540.273438 C 478.136719 544.183594 471.078125 546.523438 463.851562 546.050781 C 460.066406 545.804688 456.453125 544.78125 453.097656 542.96875 C 443.058594 537.535156 437.085938 526.101562 434.140625 514.386719 C 432.75 508.859375 431.972656 503.078125 431.691406 497.234375 C 431.484375 506.335938 432.296875 515.398438 434.425781 523.925781 C 437.628906 536.636719 444.070312 549.054688 454.917969 554.933594 C 458.535156 556.894531 462.449219 557.984375 466.554688 558.257812 C 474.355469 558.773438 481.976562 556.277344 488.96875 552.050781 C 495.941406 547.832031 502.308594 541.882812 507.59375 535.550781 C 514.597656 527.15625 520.433594 517.390625 525.015625 507.058594 C 529.570312 496.777344 532.898438 485.894531 534.933594 475.179688 C 536.5625 466.558594 537.445312 457.574219 537.3125 448.734375 C 537.183594 439.96875 536.0625 431.316406 533.683594 423.261719 C 530.183594 411.421875 523.582031 400.082031 513.035156 394.867188 C 509.546875 393.140625 505.792969 392.171875 501.890625 391.988281 " fill-opacity="1" fill-rule="evenodd"/><path fill="#560216" d="M 509.800781 395.015625 C 512.386719 396.234375 514.773438 397.769531 516.976562 399.5625 C 514.738281 407.191406 512.550781 414.648438 510.40625 421.925781 C 506.484375 435.226562 502.726562 448 499.109375 460.324219 C 506.472656 460.195312 513.835938 460.082031 521.214844 459.96875 C 526.144531 459.894531 531.082031 459.804688 536.035156 459.726562 C 535.628906 467.148438 534.558594 474.765625 532.824219 482.371094 C 527.304688 483.605469 521.789062 484.839844 516.285156 486.054688 C 513.125 486.761719 509.972656 487.457031 506.820312 488.148438 C 504.804688 495.371094 500.445312 501.910156 495.097656 504.164062 C 495.203125 508.742188 495.3125 513.230469 495.414062 517.65625 C 495.632812 526.085938 495.855469 534.296875 496.03125 542.304688 C 491.785156 545.050781 487.441406 547.125 483.101562 548.46875 C 481.882812 541.175781 480.636719 533.683594 479.363281 526.023438 C 478.222656 519.132812 477.035156 512.074219 475.839844 504.855469 C 474.929688 504.613281 474.074219 504.222656 473.273438 503.753906 C 468.074219 508.617188 462.988281 513.390625 457.964844 518.109375 C 452.398438 523.351562 446.890625 528.453125 441.492188 533.511719 C 438.707031 529.527344 436.332031 524.917969 434.398438 519.800781 C 439.433594 513.457031 444.617188 507 449.871094 500.394531 C 454.355469 494.757812 458.957031 489.015625 463.640625 483.148438 C 463.367188 490.976562 465.730469 497.449219 469.890625 500.492188 C 464.632812 492.210938 465.574219 480.722656 469.578125 471.496094 C 473.558594 462.308594 480.613281 455.257812 487.710938 455.644531 C 490.597656 455.808594 492.71875 457.292969 494.769531 459.15625 C 496.882812 461.058594 499.015625 462.945312 501.132812 464.835938 C 498.277344 461.730469 493.683594 457.96875 491.316406 455.75 C 489.585938 454.101562 487.46875 453.113281 485.046875 452.976562 C 476.460938 452.503906 467.25 463.03125 464.441406 476.574219 C 464.410156 476.691406 464.386719 476.808594 464.367188 476.910156 C 460.210938 471.417969 455.996094 465.835938 451.707031 460.144531 C 447.675781 454.792969 443.558594 449.335938 439.40625 443.800781 C 442.582031 436.390625 446.328125 429.488281 450.492188 423.328125 C 454.777344 427.503906 459.085938 431.675781 463.417969 435.859375 C 469.347656 441.585938 475.164062 447.238281 480.886719 452.800781 C 485.207031 440.65625 489.699219 428.042969 494.351562 414.957031 C 496.949219 407.652344 499.597656 400.207031 502.292969 392.59375 C 504.84375 393.070312 507.355469 393.871094 509.800781 395.015625 Z M 501.582031 489.292969 C 503.796875 483.777344 504.726562 473.757812 499.644531 471.144531 C 502.589844 475.777344 498.679688 486.355469 495.9375 490.546875 C 493.992188 493.515625 491.042969 496.183594 487.574219 495.660156 C 488.964844 498.859375 491.71875 499.824219 494.460938 498.414062 C 497.882812 496.652344 500.179688 492.988281 501.582031 489.292969 " fill-opacity="1" fill-rule="evenodd"/><path fill="#560216" d="M 753.417969 328.550781 C 752.621094 328.59375 751.84375 328.710938 751.074219 328.882812 C 752.8125 328.804688 754.519531 329.105469 756.160156 329.785156 C 761.191406 331.882812 764.742188 337.226562 766.898438 342.929688 C 769.808594 350.625 770.578125 359.671875 769.964844 368.109375 C 769.207031 378.523438 766.242188 389.347656 761.019531 397.828125 C 757.09375 404.199219 751.285156 410.042969 744.511719 410.417969 C 742.726562 410.519531 740.980469 410.222656 739.300781 409.523438 C 734.265625 407.425781 730.71875 402.085938 728.558594 396.378906 C 727.535156 393.671875 726.773438 390.796875 726.25 387.84375 C 726.765625 392.46875 727.753906 396.996094 729.332031 401.152344 C 731.652344 407.292969 735.46875 413.042969 740.882812 415.300781 C 742.691406 416.046875 744.574219 416.363281 746.488281 416.253906 C 753.785156 415.851562 760.03125 409.566406 764.25 402.710938 C 769.871094 393.589844 773.058594 381.945312 773.875 370.738281 C 774.535156 361.664062 773.703125 351.933594 770.578125 343.65625 C 768.253906 337.515625 764.433594 331.769531 759.019531 329.511719 C 757.214844 328.761719 755.332031 328.445312 753.417969 328.550781 " fill-opacity="1" fill-rule="evenodd"/><path fill="#560216" d="M 757.105469 329.78125 C 758.421875 330.300781 759.65625 331.003906 760.820312 331.867188 C 760.175781 336.097656 759.550781 340.222656 758.9375 344.234375 C 757.828125 351.5 756.773438 358.4375 755.765625 365.0625 C 759.234375 364.597656 762.695312 364.125 766.15625 363.664062 C 768.472656 363.355469 770.789062 363.042969 773.105469 362.722656 C 773.296875 366.589844 773.179688 370.570312 772.757812 374.570312 L 765.242188 377.375 L 760.941406 378.964844 C 760.402344 382.753906 758.730469 386.320312 756.371094 387.757812 L 757.277344 394.527344 C 757.832031 398.722656 758.390625 402.796875 758.914062 406.734375 C 757.113281 408.328125 755.238281 409.589844 753.324219 410.5 C 752.347656 406.984375 751.339844 403.355469 750.3125 399.617188 C 749.382812 396.242188 748.429688 392.773438 747.445312 389.191406 C 747.003906 389.121094 746.582031 388.980469 746.179688 388.777344 L 739.902344 396.886719 C 737.632812 399.820312 735.390625 402.6875 733.207031 405.515625 C 731.65625 403.703125 730.25 401.542969 729.011719 399.089844 C 730.960938 395.609375 732.976562 392.058594 735.019531 388.410156 C 736.769531 385.285156 738.5625 382.097656 740.398438 378.835938 C 740.757812 382.847656 742.265625 386.011719 744.398438 387.324219 L 744.316406 387.222656 L 744.230469 387.113281 C 738.949219 380.40625 742.660156 363.683594 750.101562 363.265625 C 751.960938 363.164062 753.304688 364.4375 754.640625 365.464844 L 756.976562 367.304688 C 755.460938 365.84375 753.066406 364.136719 751.824219 363.117188 C 750.90625 362.351562 749.84375 361.953125 748.6875 362.015625 C 744.585938 362.246094 740.859375 368.246094 740.371094 375.417969 L 740.363281 375.589844 C 738.050781 372.980469 735.695312 370.324219 733.296875 367.609375 C 731.027344 365.039062 728.707031 362.40625 726.335938 359.71875 C 727.359375 355.621094 728.695312 351.761719 730.289062 348.238281 L 737.320312 354.199219 C 740.519531 356.902344 743.640625 359.558594 746.699219 362.15625 C 748.027344 355.535156 749.410156 348.609375 750.855469 341.363281 C 751.660156 337.300781 752.492188 333.140625 753.347656 328.867188 C 754.609375 328.984375 755.863281 329.285156 757.105469 329.78125 Z M 758.566406 379.847656 C 759.125 377.097656 759.328125 371.773438 756.632812 370.640625 C 758.515625 373.453125 756.714844 384.0625 752.382812 383.871094 C 754.351562 387.527344 757.597656 384 758.566406 379.847656 " fill-opacity="1" fill-rule="evenodd"/><path fill="#560216" d="M 550.273438 408.429688 C 564.898438 421.226562 568.882812 439.28125 569.210938 448.140625 C 582.589844 438.65625 604.355469 430.78125 628.433594 426.339844 C 602.210938 436.453125 577.65625 450.726562 559.605469 467.652344 C 562.578125 451.296875 559.980469 420.257812 550.273438 408.429688 " fill-opacity="1" fill-rule="evenodd"/><g clip-path="url(#a0cd626e00)"><path fill="#560216" d="M 788.441406 372.175781 C 798.039062 359.820312 807.25 345.667969 804.066406 333.433594 C 796.8125 305.601562 718.253906 293.199219 692.605469 290.605469 C 616.425781 282.898438 513.199219 281.835938 458.25 290.960938 L 459.046875 280.332031 C 513.875 272.976562 615.632812 273.070312 692.726562 283.953125 C 720.605469 287.886719 805.191406 301.4375 809.648438 333.816406 C 811.558594 347.691406 799.296875 362.316406 788.441406 372.175781 " fill-opacity="1" fill-rule="evenodd"/></g><path fill="#560216" d="M 689.25 263.089844 C 689.59375 260.625 690.550781 253.847656 691.378906 251.8125 C 692.277344 249.59375 694.582031 248.265625 697.097656 248.507812 C 711.066406 249.882812 723.179688 254.09375 733.621094 260.867188 C 735.765625 262.261719 736.578125 264.785156 735.605469 267.058594 C 733.511719 271.976562 731.011719 275.890625 728.035156 278.632812 C 727.058594 279.539062 725.910156 280.023438 724.539062 280.105469 C 720.175781 280.382812 715.617188 280.363281 710.90625 280.109375 C 713.628906 280.167969 716.601562 279.824219 719.175781 279.660156 C 720.351562 279.589844 721.332031 279.175781 722.167969 278.402344 C 724.707031 276.054688 726.527344 273.019531 728.316406 268.8125 C 729.144531 266.867188 728.453125 264.710938 726.621094 263.523438 C 717.695312 257.726562 707.339844 254.128906 695.402344 252.957031 C 693.761719 252.796875 692.179688 253.007812 691.320312 255.839844 C 691.046875 256.734375 690.503906 262.425781 690.390625 263.898438 C 690.320312 264.839844 689.550781 264.117188 689.25 263.089844 " fill-opacity="1" fill-rule="evenodd"/><path fill="#560216" d="M 682.082031 277.230469 C 685.914062 277.710938 689.730469 278.21875 693.542969 278.757812 C 693.738281 278.78125 693.933594 278.808594 694.125 278.839844 C 646.445312 241.746094 604.597656 211.125 535.671875 214.660156 C 520.644531 215.429688 504.671875 218.496094 491.195312 224.972656 C 486.460938 227.257812 481.800781 230.089844 477.769531 233.519531 C 480.449219 231.726562 483.28125 230.152344 486.136719 228.777344 C 499.609375 222.296875 515.582031 219.234375 530.605469 218.464844 C 596.15625 215.101562 637.210938 242.625 682.082031 277.230469 Z M 672.574219 275.964844 C 641.605469 250.382812 609.523438 230.53125 567.75 223.496094 C 602.789062 232.617188 631.039062 251.144531 658.546875 274.09375 L 672.574219 275.964844 " fill-opacity="1" fill-rule="evenodd"/><path fill="#560216" d="M 90.089844 486.671875 C 122.34375 497.632812 342.050781 553.367188 389.109375 544.890625 C 376.496094 507.054688 377.667969 448.359375 406.539062 409.015625 C 437.015625 367.480469 485.363281 359.832031 531.007812 361.949219 C 592.46875 364.800781 654.015625 383.894531 707.652344 347.894531 C 657.234375 391.347656 593.433594 373.113281 534.292969 370.425781 C 491.808594 368.496094 451.734375 374.59375 420.757812 417.347656 C 390.570312 459.011719 404.195312 538.796875 413.269531 561.1875 C 320.410156 577.03125 137.824219 509.171875 90.089844 486.671875 " fill-opacity="1" fill-rule="evenodd"/><path fill="#560216" d="M 229.433594 514.753906 L 222.761719 513.175781 C 223.089844 508.742188 223.425781 504.3125 223.757812 499.882812 C 223.808594 499.195312 223.855469 498.507812 223.910156 497.824219 L 216.648438 495.828125 L 157.089844 479.480469 L 217.859375 492.03125 C 222.21875 492.929688 226.574219 493.832031 230.929688 494.726562 C 230.785156 496.675781 230.640625 498.625 230.492188 500.570312 L 229.433594 514.753906 " fill-opacity="1" fill-rule="evenodd"/><path fill="#560216" d="M 543.785156 197.707031 C 449.277344 191.457031 284.425781 183.753906 184.765625 255.355469 C 280.558594 171.585938 433.773438 185.667969 543.785156 197.707031 " fill-opacity="1" fill-rule="evenodd"/><g clip-path="url(#7e28b661a0)"><path fill="#560216" d="M 438.460938 597.25 L 484.199219 564.613281 L 408.246094 603.125 C 428.109375 590.726562 448.09375 578.5 468.203125 566.464844 C 477.332031 566.554688 485.980469 563.535156 493.652344 558.898438 C 501.589844 554.097656 508.59375 547.535156 514.40625 540.574219 C 518.351562 535.847656 521.894531 530.796875 525.054688 525.542969 C 597.542969 487.59375 672.46875 450.339844 739.183594 419.445312 C 740.957031 420.15625 742.824219 420.578125 744.730469 420.6875 C 641.300781 475.152344 539.542969 534.609375 438.460938 597.25 Z M 767.273438 406.59375 C 778.847656 401.367188 790.109375 396.375 800.984375 391.652344 L 800.976562 391.65625 L 800.988281 391.652344 C 788.789062 397.816406 776.613281 404.058594 764.464844 410.367188 C 765.480469 409.140625 766.421875 407.871094 767.273438 406.59375 Z M 467.691406 566.457031 C 425.785156 589.746094 386.296875 612.242188 352.03125 632.4375 L 440.574219 575.570312 L 321.335938 638.3125 C 360.269531 615.203125 405.59375 589.648438 453.777344 563.515625 C 457.613281 565.140625 461.699219 566.101562 465.949219 566.378906 C 466.527344 566.417969 467.109375 566.4375 467.691406 566.457031 " fill-opacity="1" fill-rule="evenodd"/></g><path fill="#560216" d="M 117.304688 570.371094 L 163.050781 537.738281 L 87.097656 576.246094 C 108.265625 563.035156 129.5625 550.023438 151.003906 537.21875 C 151.671875 537.296875 152.339844 537.347656 153.015625 537.394531 C 161.9375 537.980469 170.554688 536.207031 178.5625 532.875 C 158.113281 545.234375 137.699219 557.738281 117.304688 570.371094 Z M 150.816406 537.199219 C 107.324219 561.335938 66.308594 584.675781 30.882812 605.558594 L 119.421875 548.691406 L 0.1875 611.433594 C 40.503906 587.5 87.671875 560.945312 137.773438 533.847656 C 141.929688 535.582031 146.308594 536.699219 150.816406 537.199219 " fill-opacity="1" fill-rule="evenodd"/><g clip-path="url(#2cef574313)"><g clip-path="url(#f843f80846)"><path fill="#560216" d="M 474.660156 467.792969 L 493.757812 467.792969 L 493.757812 486.890625 L 474.660156 486.890625 Z M 474.660156 467.792969 " fill-opacity="1" fill-rule="nonzero"/></g></g></svg>